<?xml version="1.0" encoding="UTF-8"?>
<svg id="Layer_1" xmlns="http://www.w3.org/2000/svg" version="1.1" viewBox="0 0 252 360">
  <!-- Generator: Adobe Illustrator 29.8.1, SVG Export Plug-In . SVG Version: 2.1.1 Build 2)  -->
  <defs>
    <style>
      .st0 {
        fill: #231f20;
      }
    </style>
  </defs>
  <path class="st0" d="M197.98,2.98c-.53,72.05-.57,222.91-.58,246.02,0,1.66-1.35,3-3.01,3h-52.04c-2.31,0-3.76,2.5-2.61,4.51,17.26,29.9,41.99,72.73,58.88,101.99.54.93,1.53,1.5,2.6,1.5h47.77c1.66,0,3.01-1.35,3.01-3.01V3.01c0-1.66-1.35-3.01-3.01-3.01h-48.01c-1.65,0-3,1.33-3.01,2.98Z"/>
  <path class="st0" d="M50.77,0H3.01C1.35,0,0,1.35,0,3.01v353.99c0,1.66,1.35,3.01,3.01,3.01h47.99c1.66,0,3.01-1.35,3.01-3.01V111.01c0-1.66,1.35-3.01,3.01-3.01h52.64c2.32,0,3.76-2.51,2.6-4.51L53.38,1.5c-.54-.93-1.53-1.5-2.6-1.5Z"/>
</svg>