<?xml version="1.0" encoding="UTF-8"?>
<svg id="Layer_2" data-name="Layer 2" xmlns="http://www.w3.org/2000/svg" viewBox="0 0 1296 864">
  <defs>
    <style>
      .cls-1 {
        fill: #231f20;
      }

      .cls-2 {
        fill: #ff000a;
      }

      .cls-3 {
        fill: #ec1c24;
      }
    </style>
  </defs>
  <g id="black_lines">
    <g id="star2">
      <rect class="cls-1" x="575.5" y="-576" width="1" height="1872"/>
      <rect class="cls-1" x="-360" y="359.5" width="1872" height="1"/>
      <rect class="cls-1" x="-359.9999" y="359.4999" width="1871.9997" height="1.0002" transform="translate(-102.8284 336.1679) rotate(-29.9947)"/>
      <rect class="cls-1" x="575.5003" y="-575.9999" width=".9993" height="1871.9997" transform="translate(-102.8306 336.2309) rotate(-30)"/>
      <rect class="cls-1" x="574.9003" y="-575.9999" width="1.0002" height="1871.9997" transform="translate(-24.069 678.3113) rotate(-60)"/>
      <rect class="cls-1" x="-360.5995" y="359.5003" width="1871.9997" height=".9993" transform="translate(-24.1949 678.0741) rotate(-59.9773)"/>
    </g>
    <g id="star1">
      <rect class="cls-1" x="719.5" y="-432" width="1" height="1872"/>
      <rect class="cls-1" x="-216" y="503.5" width="1872" height="1"/>
      <rect class="cls-1" x="-215.9999" y="503.4999" width="1871.9997" height="1.0002" transform="translate(-155.5312 427.442) rotate(-29.9947)"/>
      <rect class="cls-1" x="719.5003" y="-431.9999" width=".9993" height="1871.9997" transform="translate(-155.5383 427.5233) rotate(-30)"/>
      <rect class="cls-1" x="718.9003" y="-431.9999" width="1.0002" height="1871.9997" transform="translate(-76.7766 875.0189) rotate(-60)"/>
      <rect class="cls-1" x="-216.5995" y="503.5003" width="1871.9997" height=".9993" transform="translate(-76.9234 874.7039) rotate(-59.9773)"/>
    </g>
  </g>
  <g id="logo">
    <path id="logo_right" data-name="logo right" class="cls-1" d="M720,252c-.5934,76.6859-.6001,252-.6001,252h-60.2598c17.5809,30.4583,44.5882,77.2336,62.3501,108h52.5097V252h-54Z"/>
    <polygon id="logo_left" data-name="logo left" class="cls-1" points="574.5098 252 522 252 522 612 576 612 576 360 636.8599 360 574.5098 252"/>
  </g>
  <g id="circles">
    <circle class="cls-3" cx="576" cy="252" r="9"/>
    <circle class="cls-3" cx="522" cy="389.788" r="9"/>
    <circle class="cls-3" cx="720.6293" cy="612" r="9"/>
    <circle class="cls-3" cx="774" cy="473.6453" r="9"/>
  </g>
  <g id="red_lines">
    <path class="cls-2" d="M722.0566,612.5h-2.8564v-4.9453l2.8564,4.9453ZM720.2002,611.5h.124l-.124-.2148v.2148ZM717.4326,505.8979l2.7676-4.8062v2.7744l1.1494,1.9932-1.9531-1.1084-1.9639,1.147ZM774.2002,475.5269l-3.0879-1.7871,3.0879-1.7871v3.5742ZM773.1084,473.7397l.0918.0527v-.1055l-.0918.0527ZM521.2002,392.0518v-2.8867l2.4863,1.4316-2.4863,1.4551ZM573.4326,361.8979l2.7676-4.8062v2.7744l1.1494,1.9932-1.9531-1.1084-1.9639,1.147ZM576.2002,256.4453l-2.8564-4.9453h2.8564v4.9453ZM575.0762,252.5l.124.2148v-.2148h-.124Z"/>
    <path class="cls-2" d="M774.2002,536.3862l-54.5664-31.5005-.7988-1.3857h55.3652v32.8862ZM720.9658,504.5l52.2344,30.1538v-30.1538h-52.2344Z"/>
    <path class="cls-2" d="M720.2002,612.5h-64.3164l33.0869-57.3101,31.2295,54.0962v3.2139ZM657.6162,611.5h61.584v-1.9463l-30.2295-52.3638-31.3545,54.3101Z"/>
    <path class="cls-2" d="M576.2002,612.5h-45.4258l45.4258-26.2261v26.2261ZM534.5068,611.5h40.6934v-23.4937l-40.6934,23.4937Z"/>
    <path class="cls-2" d="M576.9658,360.5h-55.7656v-32.1963l55.7656,32.1963ZM522.2002,359.5h51.0332l-51.0332-29.4639v29.4639Z"/>
    <path class="cls-2" d="M605.8301,307.77l-30.6299-53.0562v-3.2139h63.1162l-32.4863,56.27ZM576.2002,254.4463l29.6299,51.3237,30.7539-53.27h-60.3838v1.9463Z"/>
    <path class="cls-2" d="M719.2002,277.7261v-26.2261h45.4258l-45.4258,26.2261ZM720.2002,252.5v23.4937l40.6934-23.4937h-40.6934Z"/>
    <rect class="cls-2" x="575.2002" y="360" width="1" height=".3501"/>
    <path class="cls-2" d="M688.9707,557.1899l-15.6025-27.0229,46.7988-27.0127-31.1963,54.0356ZM674.7334,530.5332l14.2373,24.6567,28.4639-49.3042-42.7012,24.6475Z"/>
    <path class="cls-2" d="M575.2002,360.8262v-108.1123l31.207,54.0562-31.207,54.0562ZM576.2002,256.4463v100.6475l29.0527-50.3237-29.0527-50.3237Z"/>
    <rect class="cls-2" x="575.1006" y="359.5" width=".5996" height="1"/>
    <path class="cls-2" d="M521.2002,454.3555v-63.4624l1.4883-.8711,26.7441,15.4448-28.2324,48.8887ZM522.2002,391.4663v59.1577l25.8672-44.791-25.375-14.6548-.4922.2881Z"/>
    <rect class="cls-2" x="575.378" y="359.5851" width=".3446" height=".9997" transform="translate(-102.6949 330.0378) rotate(-29.495)"/>
    <path class="cls-2" d="M575.4004,360.4805l-.4326-.7505-53.7676-93.1265v-15.1035h53.2988l1.7012,2.9463v104.6475l-.7998,1.3867ZM522.2002,266.3359l53,91.7974v-103.4189l-1.2793-2.2144h-51.7207v13.8359Z"/>
    <rect class="cls-2" x="575.05" y="359.4399" width="1.0005" height=".6003" transform="translate(-102.746 335.5516) rotate(-29.9646)"/>
    <path class="cls-2" d="M575.2822,360.6826l-54.082-31.2241v-64.855l54.7773,94.8765-.6953,1.2026ZM522.2002,328.8813l52.4346,30.2729-52.4346-90.8184v60.5454Z"/>
    <rect class="cls-2" x="574.7507" y="359.9127" width=".9997" height=".3446" transform="translate(-21.6637 682.9902) rotate(-60.4565)"/>
    <path class="cls-2" d="M630.0762,453.1758l-54.876-31.6772v-62.0063l1.165.6602.0674.1177,53.6436,92.9058ZM576.2002,420.9214l51.1436,29.5229-51.1436-88.5776v59.0547Z"/>
    <path class="cls-2" d="M576.2002,504.5h-55v-52.144l.0674-.1162,27.2998-47.2729,27.6328,15.9546v83.5786ZM522.2002,503.5h53v-82.0015l-26.2676-15.1655-26.7324,46.2905v50.8765Z"/>
    <path class="cls-2" d="M673.8682,531.0332l-15.8945-27.5332h61.9902l-.7969,1.3857-.1162.0674-45.1826,26.0801ZM659.7061,504.5l14.5273,25.167,43.6016-25.167h-58.1289Z"/>
    <rect class="cls-2" x="719.2002" y="504" width="1" height=".3501"/>
    <path class="cls-2" d="M621.167,334.333l-15.9141-27.563,31.9082-55.27h83.0391v25.6484l-.25.1445-98.7832,57.04ZM606.4072,306.77l15.125,26.1968,97.668-56.3955v-24.0713h-81.4609l-31.332,54.27Z"/>
    <rect class="cls-2" x="719.1006" y="503.5" width=".5996" height="1"/>
    <path class="cls-2" d="M532.7744,612.5h-11.5742v-109h55v83.9287l-43.4258,25.0713ZM522.2002,611.5h10.3066l42.6934-24.6484v-82.3516h-53v107Z"/>
    <path class="cls-2" d="M575.2002,588.0063v-84.5063h83.9287l.1436.25,15.4609,26.7832-99.5332,57.4731ZM576.2002,504.5v81.7739l97.168-56.1069-14.8174-25.667h-82.3506Z"/>
    <path class="cls-2" d="M774.2002,504.5h-56.3662l54.2764-31.3379,2.0898,1.209v30.1289ZM721.5664,503.5h51.6338v-28.5518l-1.0898-.6309-50.5439,29.1826Z"/>
    <path class="cls-2" d="M772.1104,474.3174l-27.3428-15.7842,29.4326-50.9692v65.5444l-2.0898,1.209ZM746.1328,458.167l25.9775,14.9951,1.0898-.6309v-61.2358l-27.0674,46.8716Z"/>
    <rect class="cls-2" x="719.378" y="503.5851" width=".3446" height=".9997" transform="translate(-154.9303 419.5983) rotate(-29.495)"/>
    <rect class="cls-2" x="719.05" y="503.4399" width="1.0005" height=".6003" transform="translate(-155.4211 426.7223) rotate(-29.9646)"/>
    <path class="cls-2" d="M575.2002,360.8657v-2.0396l.0674-.1162,30.5625-52.9399,16.2021,28.063-46.832,27.0327ZM576.2002,359.0938v.0405l44.4668-25.6675-14.8369-25.6968-29.6299,51.3237Z"/>
    <path class="cls-2" d="M522.6904,391.1772l-1.4902-.8584v-30.8188h54.7637l-.7969,1.3857-.1162.0674-52.3604,30.2241ZM522.2002,389.7407l.4902.2822,51.1445-29.5229h-51.6348v29.2407Z"/>
    <path class="cls-2" d="M548.9326,406.333l-27.2422-15.7329,54.4756-31.4458-27.2334,47.1787ZM523.6904,390.6001l24.877,14.3667,24.8682-43.0811-49.7451,28.7144Z"/>
    <path class="cls-2" d="M576.2002,422.0762l-28.1328-16.2432,26.3662-45.6777.9707-.5664.7959.4785v62.0088ZM549.4326,405.4668l25.7676,14.877v-59.478l-.0322.019-25.7354,44.582Z"/>
    <path class="cls-2" d="M720.2002,611.2861l-31.8066-55.0962,30.041-52.0347.9697-.5664.7959.4785v107.2188ZM689.5479,556.1899l29.6523,51.3638v-102.688l-.0332.019-29.6191,51.3052Z"/>
    <path class="cls-2" d="M774.2002,612.5h-53.2988l-1.7012-2.9463v-106.0615l1.165.6602.0674.1177,53.7676,93.126v15.104ZM721.4795,611.5h51.7207v-13.8364l-53-91.7969v103.4194l1.2793,2.2139Z"/>
    <path class="cls-2" d="M774.2002,599.396l-55.5664-96.2417,55.5664,32.0771v64.1646ZM721.3662,505.8857l51.834,89.7778v-59.855l-51.834-29.9229Z"/>
    <path class="cls-2" d="M659.7061,504.5h-84.5059v-84.1558l53.876,31.0996.0664.1162,30.5635,52.9399ZM576.2002,503.5h81.7734l-29.6299-51.3237-52.1436-30.1006v81.4243Z"/>
    <path class="cls-2" d="M720.9658,504.5h-62.415l-.1436-.25-31.0635-53.8062,93.6221,54.0562ZM659.1289,503.5h58.1045l-87.1572-50.3237,29.0527,50.3237Z"/>
    <rect class="cls-2" x="718.7507" y="503.9127" width=".9997" height=".3446" transform="translate(-73.9451 881.2634) rotate(-60.4565)"/>
    <path class="cls-2" d="M720.2002,444.3457l-53.2764-30.7495-.0664-.1162-31.1631-53.98h84.5059v84.8457ZM667.6562,412.8638l51.5439,29.7505v-82.1143h-81.7734l30.2295,52.3638Z"/>
    <path class="cls-2" d="M774.2002,360.5h-55v-83.9287l43.4258-25.0713h11.5742v109ZM720.2002,359.5h53v-107h-10.3066l-42.6934,24.6484v82.3516Z"/>
    <path class="cls-2" d="M720.2002,360.5h-83.9287l-.1436-.25-15.4609-26.7832,99.5332-57.4731v84.5063ZM636.8496,359.5h82.3506v-81.7739l-97.168,56.1069,14.8174,25.667Z"/>
    <path class="cls-2" d="M637.4268,360.5h-63.5928l47.6982-27.5332,15.8945,27.5332ZM577.5664,359.5h58.1279l-14.5273-25.167-43.6006,25.167Z"/>
    <path class="cls-2" d="M657.0391,612.5h-81.8389v-25.6484l.25-.1445,98.7832-57.04,15.3145,26.5229-32.5088,56.3101ZM576.2002,611.5h80.2607l31.9326-55.3101-14.5254-25.1567-97.668,56.3955v24.0713Z"/>
    <path class="cls-2" d="M719.2002,504.8662v-2.04l.0674-.1162,26-45.043,27.8428,16.0728-53.9102,31.1265ZM720.2002,503.0938v.04l50.9102-29.394-25.4775-14.7065-25.4326,44.0605Z"/>
    <path class="cls-2" d="M745.6328,459.0332l-26.4326-15.2646v-84.2686h55v50.0635l-.0674.1162-28.5,49.3535ZM720.2002,443.1914l25.0674,14.4756,27.9326-48.3711v-48.7959h-53v82.6914Z"/>
    <path class="cls-2" d="M719.2002,504.8262v-62.2124l26.9326,15.5532-26.9326,46.6592ZM720.2002,444.3462v56.7476l24.5674-42.5605-24.5674-14.187Z"/>
    <path class="cls-2" d="M668.6562,414.5962l-93.0225-53.7104-.7988-1.3857h62.0146l.1436.25,31.6631,54.8462ZM576.9648,360.5l88.959,51.3638-29.6523-51.3638h-59.3066Z"/>
    <path class="cls-2" d="M719.4004,504.4805l-.4326-.7505-53.0439-91.8657,54.2764,31.3271v59.9023l-.7998,1.3867ZM668.6562,414.5957l50.5439,87.5376v-58.3647l-50.5439-29.1729Z"/>
    <path class="cls-2" d="M719.2822,504.6826l-.4326-.2495-90.5059-52.2568-.0664-.1162-53.6436-92.9062,93.0225,53.71.0664.1162,52.2549,90.5-.6953,1.2026ZM629.0762,451.4438l89.5586,51.7104-51.7109-89.5581-89.5576-51.71,51.71,89.5576Z"/>
  </g>
</svg>