<?xml version="1.0" encoding="UTF-8"?>
<svg id="Layer_2" data-name="Layer 2" xmlns="http://www.w3.org/2000/svg" viewBox="0 0 1296 864">
  <defs>
    <style>
      .cls-1 {
        fill: #231f20;
      }

      .cls-2 {
        fill: #ff000a;
      }

      .cls-3 {
        fill: #ec1c24;
      }
    </style>
  </defs>
  <g id="black_lines">
    <g>
      <rect class="cls-1" x="575.5" y="-576" width="1" height="1872"/>
      <rect class="cls-1" x="-360" y="359.5" width="1872" height="1"/>
      <rect class="cls-1" x="-360" y="359.5" width="1872" height="1" transform="translate(-102.83 336.17) rotate(-29.99)"/>
      <rect class="cls-1" x="575.5" y="-576" width="1" height="1872" transform="translate(-102.83 336.23) rotate(-30)"/>
      <rect class="cls-1" x="574.9" y="-576" width="1" height="1872" transform="translate(-24.07 678.31) rotate(-60)"/>
      <rect class="cls-1" x="-360.6" y="359.5" width="1872" height="1" transform="translate(-24.19 678.07) rotate(-59.98)"/>
    </g>
    <rect class="cls-1" x="719.5" y="-432" width="1" height="1872"/>
    <rect class="cls-1" x="-216" y="503.5" width="1872" height="1"/>
    <rect class="cls-1" x="-216" y="503.5" width="1872" height="1" transform="translate(-155.53 427.44) rotate(-29.99)"/>
    <rect class="cls-1" x="719.5" y="-432" width="1" height="1872" transform="translate(-155.54 427.52) rotate(-30)"/>
    <rect class="cls-1" x="718.9" y="-432" width="1" height="1872" transform="translate(-76.78 875.02) rotate(-60)"/>
    <rect class="cls-1" x="-216.6" y="503.5" width="1872" height="1" transform="translate(-76.92 874.7) rotate(-59.98)"/>
  </g>
  <g id="circles">
    <circle class="cls-3" cx="576" cy="252" r="9"/>
    <circle class="cls-3" cx="522" cy="389.79" r="9"/>
    <circle class="cls-3" cx="720.63" cy="612" r="9"/>
    <circle class="cls-3" cx="774" cy="473.65" r="9"/>
  </g>
  <g id="red_lines">
    <path class="cls-2" d="M722.06,612.5h-2.86v-4.95l2.86,4.95ZM720.2,611.5h.12l-.12-.21v.21ZM717.43,505.9l2.77-4.81v2.77l1.15,1.99-1.95-1.11-1.96,1.15ZM774.2,475.53l-3.09-1.79,3.09-1.79v3.57ZM773.11,473.74l.09.05v-.11l-.09.05ZM521.2,392.05v-2.89l2.49,1.43-2.49,1.46ZM573.43,361.9l2.77-4.81v2.77l1.15,1.99-1.95-1.11-1.96,1.15ZM576.2,256.45l-2.86-4.95h2.86v4.95ZM575.08,252.5l.12.21v-.21h-.12Z"/>
    <path class="cls-2" d="M774.2,536.39l-54.57-31.5-.8-1.39h55.37v32.89ZM720.97,504.5l52.23,30.15v-30.15h-52.23Z"/>
    <path class="cls-2" d="M720.2,612.5h-64.32l33.09-57.31,31.23,54.1v3.21ZM657.62,611.5h61.58v-1.95l-30.23-52.36-31.35,54.31Z"/>
    <path class="cls-2" d="M576.2,612.5h-45.43l45.43-26.23v26.23ZM534.51,611.5h40.69v-23.49l-40.69,23.49Z"/>
    <path class="cls-2" d="M576.97,360.5h-55.77v-32.2l55.77,32.2ZM522.2,359.5h51.03l-51.03-29.46v29.46Z"/>
    <path class="cls-2" d="M605.83,307.77l-30.63-53.06v-3.21h63.12l-32.49,56.27ZM576.2,254.45l29.63,51.32,30.75-53.27h-60.38v1.95Z"/>
    <path class="cls-2" d="M719.2,277.73v-26.23h45.43l-45.43,26.23ZM720.2,252.5v23.49l40.69-23.49h-40.69Z"/>
    <rect class="cls-2" x="575.2" y="360" width="1" height=".35"/>
    <path class="cls-2" d="M688.97,557.19l-15.6-27.02,46.8-27.01-31.2,54.04ZM674.73,530.53l14.24,24.66,28.46-49.3-42.7,24.65Z"/>
    <path class="cls-2" d="M575.2,360.83v-108.11l31.21,54.06-31.21,54.06ZM576.2,256.45v100.65l29.05-50.32-29.05-50.32Z"/>
    <rect class="cls-2" x="575.1" y="359.5" width=".6" height="1"/>
    <path class="cls-2" d="M521.2,454.36v-63.46l1.49-.87,26.74,15.44-28.23,48.89ZM522.2,391.47v59.16l25.87-44.79-25.38-14.65-.49.29Z"/>
    <rect class="cls-2" x="575.38" y="359.59" width=".34" height="1" transform="translate(-102.69 330.04) rotate(-29.49)"/>
    <path class="cls-2" d="M575.4,360.48l-.43-.75-53.77-93.13v-15.1h53.3l1.7,2.95v104.65l-.8,1.39ZM522.2,266.34l53,91.8v-103.42l-1.28-2.21h-51.72v13.84Z"/>
    <rect class="cls-2" x="575.05" y="359.44" width="1" height=".6" transform="translate(-102.75 335.55) rotate(-29.96)"/>
    <path class="cls-2" d="M575.28,360.68l-54.08-31.22v-64.85l54.78,94.88-.7,1.2ZM522.2,328.88l52.43,30.27-52.43-90.82v60.55Z"/>
    <rect class="cls-2" x="574.75" y="359.91" width="1" height=".34" transform="translate(-21.66 682.99) rotate(-60.46)"/>
    <path class="cls-2" d="M630.08,453.18l-54.88-31.68v-62.01l1.17.66.07.12,53.64,92.91ZM576.2,420.92l51.14,29.52-51.14-88.58v59.05Z"/>
    <path class="cls-2" d="M576.2,504.5h-55v-52.14l.07-.12,27.3-47.27,27.63,15.95v83.58ZM522.2,503.5h53v-82l-26.27-15.17-26.73,46.29v50.88Z"/>
    <path class="cls-2" d="M673.87,531.03l-15.89-27.53h61.99l-.8,1.39-.12.07-45.18,26.08ZM659.71,504.5l14.53,25.17,43.6-25.17h-58.13Z"/>
    <rect class="cls-2" x="719.2" y="504" width="1" height=".35"/>
    <path class="cls-2" d="M621.17,334.33l-15.91-27.56,31.91-55.27h83.04v25.65l-.25.14-98.78,57.04ZM606.41,306.77l15.12,26.2,97.67-56.4v-24.07h-81.46l-31.33,54.27Z"/>
    <rect class="cls-2" x="719.1" y="503.5" width=".6" height="1"/>
    <path class="cls-2" d="M532.77,612.5h-11.57v-109h55v83.93l-43.43,25.07ZM522.2,611.5h10.31l42.69-24.65v-82.35h-53v107Z"/>
    <path class="cls-2" d="M575.2,588.01v-84.51h83.93l.14.25,15.46,26.78-99.53,57.47ZM576.2,504.5v81.77l97.17-56.11-14.82-25.67h-82.35Z"/>
    <path class="cls-2" d="M774.2,504.5h-56.37l54.28-31.34,2.09,1.21v30.13ZM721.57,503.5h51.63v-28.55l-1.09-.63-50.54,29.18Z"/>
    <path class="cls-2" d="M772.11,474.32l-27.34-15.78,29.43-50.97v65.54l-2.09,1.21ZM746.13,458.17l25.98,15,1.09-.63v-61.24l-27.07,46.87Z"/>
    <rect class="cls-2" x="719.38" y="503.59" width=".34" height="1" transform="translate(-154.93 419.6) rotate(-29.49)"/>
    <rect class="cls-2" x="719.05" y="503.44" width="1" height=".6" transform="translate(-155.42 426.72) rotate(-29.96)"/>
    <path class="cls-2" d="M575.2,360.87v-2.04l.07-.12,30.56-52.94,16.2,28.06-46.83,27.03ZM576.2,359.09v.04l44.47-25.67-14.84-25.7-29.63,51.32Z"/>
    <path class="cls-2" d="M522.69,391.18l-1.49-.86v-30.82h54.76l-.8,1.39-.12.07-52.36,30.22ZM522.2,389.74l.49.28,51.14-29.52h-51.63v29.24Z"/>
    <path class="cls-2" d="M548.93,406.33l-27.24-15.73,54.48-31.45-27.23,47.18ZM523.69,390.6l24.88,14.37,24.87-43.08-49.75,28.71Z"/>
    <path class="cls-2" d="M576.2,422.08l-28.13-16.24,26.37-45.68.97-.57.8.48v62.01ZM549.43,405.47l25.77,14.88v-59.48l-.03.02-25.74,44.58Z"/>
    <path class="cls-2" d="M720.2,611.29l-31.81-55.1,30.04-52.03.97-.57.8.48v107.22ZM689.55,556.19l29.65,51.36v-102.69l-.03.02-29.62,51.31Z"/>
    <path class="cls-2" d="M774.2,612.5h-53.3l-1.7-2.95v-106.06l1.17.66.07.12,53.77,93.13v15.1ZM721.48,611.5h51.72v-13.84l-53-91.8v103.42l1.28,2.21Z"/>
    <path class="cls-2" d="M774.2,599.4l-55.57-96.24,55.57,32.08v64.16ZM721.37,505.89l51.83,89.78v-59.85l-51.83-29.92Z"/>
    <path class="cls-2" d="M659.71,504.5h-84.51v-84.16l53.88,31.1.07.12,30.56,52.94ZM576.2,503.5h81.77l-29.63-51.32-52.14-30.1v81.42Z"/>
    <path class="cls-2" d="M720.97,504.5h-62.42l-.14-.25-31.06-53.81,93.62,54.06ZM659.13,503.5h58.1l-87.16-50.32,29.05,50.32Z"/>
    <rect class="cls-2" x="718.75" y="503.91" width="1" height=".34" transform="translate(-73.95 881.26) rotate(-60.46)"/>
    <path class="cls-2" d="M720.2,444.35l-53.28-30.75-.07-.12-31.16-53.98h84.51v84.85ZM667.66,412.86l51.54,29.75v-82.11h-81.77l30.23,52.36Z"/>
    <path class="cls-2" d="M774.2,360.5h-55v-83.93l43.43-25.07h11.57v109ZM720.2,359.5h53v-107h-10.31l-42.69,24.65v82.35Z"/>
    <path class="cls-2" d="M720.2,360.5h-83.93l-.14-.25-15.46-26.78,99.53-57.47v84.51ZM636.85,359.5h82.35v-81.77l-97.17,56.11,14.82,25.67Z"/>
    <path class="cls-2" d="M637.43,360.5h-63.59l47.7-27.53,15.89,27.53ZM577.57,359.5h58.13l-14.53-25.17-43.6,25.17Z"/>
    <path class="cls-2" d="M657.04,612.5h-81.84v-25.65l.25-.14,98.78-57.04,15.31,26.52-32.51,56.31ZM576.2,611.5h80.26l31.93-55.31-14.53-25.16-97.67,56.4v24.07Z"/>
    <path class="cls-2" d="M719.2,504.87v-2.04l.07-.12,26-45.04,27.84,16.07-53.91,31.13ZM720.2,503.09v.04l50.91-29.39-25.48-14.71-25.43,44.06Z"/>
    <path class="cls-2" d="M745.63,459.03l-26.43-15.26v-84.27h55v50.06l-.07.12-28.5,49.35ZM720.2,443.19l25.07,14.48,27.93-48.37v-48.8h-53v82.69Z"/>
    <path class="cls-2" d="M719.2,504.83v-62.21l26.93,15.55-26.93,46.66ZM720.2,444.35v56.75l24.57-42.56-24.57-14.19Z"/>
    <path class="cls-2" d="M668.66,414.6l-93.02-53.71-.8-1.39h62.01l.14.25,31.66,54.85ZM576.96,360.5l88.96,51.36-29.65-51.36h-59.31Z"/>
    <path class="cls-2" d="M719.4,504.48l-.43-.75-53.04-91.87,54.28,31.33v59.9l-.8,1.39ZM668.66,414.6l50.54,87.54v-58.36l-50.54-29.17Z"/>
    <path class="cls-2" d="M719.28,504.68l-.43-.25-90.51-52.26-.07-.12-53.64-92.91,93.02,53.71.07.12,52.25,90.5-.7,1.2ZM629.08,451.44l89.56,51.71-51.71-89.56-89.56-51.71,51.71,89.56Z"/>
  </g>
  <g id="logo">
    <path id="logo_right" data-name="logo right" class="cls-1" d="M720,252c-.59,76.69-.6,252-.6,252h-60.26c17.58,30.46,44.59,77.23,62.35,108h52.51V252h-54Z"/>
    <polygon id="logo_left" data-name="logo left" class="cls-1" points="574.51 252 522 252 522 612 576 612 576 360 636.86 360 574.51 252"/>
  </g>
</svg>